<?xml version="1.0" encoding="iso-8859-1"?>
<!-- Generator: Adobe Illustrator 19.0.0, SVG Export Plug-In . SVG Version: 6.00 Build 0)  -->
<svg version="1.1" id="Capa_1" xmlns="http://www.w3.org/2000/svg" xmlns:xlink="http://www.w3.org/1999/xlink" x="0px" y="0px"
	 viewBox="0 0 512 512" style="enable-background:new 0 0 512 512;" xml:space="preserve"
	 width="71px">
	<g>
		<rect x="170.667" y="341.333" style="fill:#5496CE;" width="170.667" height="170.667"/>
		<g>
			<polygon style="fill:#336A93;" points="215.579,386.246 215.579,467.088 170.667,512 170.667,341.333 		"/>
			<polygon style="fill:#336A93;" points="341.333,341.333 341.333,512 296.421,467.088 296.421,386.246 		"/>
		</g>
		<rect x="215.579" y="386.246" style="fill:#36B6D6;" width="80.842" height="80.842"/>

		<rect x="170.667" y="170.667" style="fill:#FF6C77;" width="170.667" height="170.667"/>
		<g>
			<polygon style="fill:#ED634C;" points="341.333,170.667 341.333,341.333 296.421,296.421 296.421,215.579 		"/>
			<polygon style="fill:#ED634C;" points="215.579,215.579 215.579,296.421 170.667,341.333 170.667,170.667 		"/>
		</g>
		<rect x="215.579" y="215.579" style="fill:#FE9189;" width="80.842" height="80.842"/>

		<rect x="170.667" style="fill:#5DC382;" width="170.667" height="170.667"/>
		<g>
			<polygon style="fill:#23B972;" points="215.579,44.912 215.579,125.754 170.667,170.667 170.667,0 		"/>
			<polygon style="fill:#23B972;" points="341.333,0 341.333,170.667 296.421,125.754 296.421,44.912 		"/>
		</g>
		<rect x="215.579" y="44.912" style="fill:#8ED7AE;" width="80.842" height="80.842"/>
	</g>
</svg>
