<?xml version="1.0" encoding="iso-8859-1"?>
<!-- Generator: Adobe Illustrator 19.0.0, SVG Export Plug-In . SVG Version: 6.00 Build 0)  -->
<svg version="1.1" id="Capa_1" xmlns="http://www.w3.org/2000/svg" xmlns:xlink="http://www.w3.org/1999/xlink" x="0px" y="0px"
	 viewBox="0 0 512 512" style="enable-background:new 0 0 512 512;" xml:space="preserve"
	 width="72px">
	<g>
		<rect x="256" y="170.667" style="fill:#5DC382;" width="170.667" height="170.667"/>
		<g>
			<polygon style="fill:#23B972;" points="300.912,215.579 300.912,296.421 256,341.333 256,170.667 		"/>
			<polygon style="fill:#23B972;" points="426.667,170.667 426.667,341.333 381.754,296.421 381.754,215.579 		"/>
		</g>
		<rect x="300.912" y="215.579" style="fill:#8ED7AE;" width="80.842" height="80.842"/>

		<rect x="85.333" y="341.333" style="fill:#F6AB27;" width="170.667" height="170.667"/>
		<g>
			<polygon style="fill:#EC9130;" points="130.246,386.246 130.246,467.088 85.333,512 85.333,341.333 		"/>
			<polygon style="fill:#EC9130;" points="256,341.333 256,512 211.088,467.088 211.088,386.246 		"/>
		</g>
		<rect x="130.246" y="386.246" style="fill:#FCCC88;" width="80.842" height="80.842"/>

		<rect x="256" y="341.333" style="fill:#5496CE;" width="170.667" height="170.667"/>
		<g>
			<polygon style="fill:#336A93;" points="300.912,386.246 300.912,467.088 256,512 256,341.333 		"/>
			<polygon style="fill:#336A93;" points="426.667,341.333 426.667,512 381.754,467.088 381.754,386.246 		"/>
		</g>
		<rect x="300.912" y="386.246" style="fill:#36B6D6;" width="80.842" height="80.842"/>

		<rect x="256" style="fill:#FF6C77;" width="170.667" height="170.667"/>
		<g>
			<polygon style="fill:#ED634C;" points="426.667,0 426.667,170.667 381.754,125.754 381.754,44.912 		"/>
			<polygon style="fill:#ED634C;" points="300.912,44.912 300.912,125.754 256,170.667 256,0 		"/>
		</g>
		<rect x="300.912" y="44.912" style="fill:#FE9189;" width="80.842" height="80.842"/>
	</g>
</svg>
